<svg width="780" height="457" viewBox="0 0 780 457" fill="none" xmlns="http://www.w3.org/2000/svg">
<rect width="780" height="457" fill="#1B1B1B"/>
<g filter="url(#filter0_d)">
<path d="M343.324 296.055C342.396 296.056 341.494 295.755 340.753 295.197C337.343 292.657 334.121 289.872 331.114 286.866L333.887 283.578L336.955 280.578L333.887 283.578L337.028 280.66C339.788 283.43 342.748 285.994 345.883 288.331C346.602 288.871 347.134 289.624 347.402 290.482C347.67 291.341 347.661 292.262 347.377 293.115C347.093 293.969 346.547 294.711 345.817 295.237C345.087 295.763 344.211 296.046 343.311 296.046L343.324 296.055Z" fill="white"/>
<path d="M389.794 311.244C383.102 311.247 376.435 310.436 369.938 308.831C368.835 308.557 367.885 307.857 367.298 306.883C366.711 305.909 366.534 304.742 366.808 303.638C367.081 302.535 367.782 301.585 368.755 300.998C369.729 300.41 370.896 300.234 372 300.507C384.502 303.571 397.583 303.367 409.984 299.914C422.384 296.462 433.688 289.877 442.809 280.793C452.316 271.28 459.078 259.376 462.382 246.338C465.685 233.301 465.406 219.613 461.576 206.721C457.745 193.828 450.504 182.21 440.618 173.091C430.732 163.973 418.567 157.693 405.408 154.915C392.249 152.137 378.583 152.964 365.855 157.309C353.127 161.654 341.808 169.355 333.094 179.599C324.379 189.843 318.593 202.25 316.345 215.51C314.097 228.771 315.471 242.392 320.322 254.936C320.544 255.465 320.658 256.032 320.657 256.606C320.655 257.179 320.539 257.746 320.314 258.274C320.09 258.801 319.762 259.278 319.349 259.677C318.937 260.075 318.449 260.387 317.914 260.593C317.38 260.8 316.809 260.897 316.236 260.879C315.663 260.861 315.099 260.728 314.578 260.488C314.058 260.248 313.59 259.907 313.204 259.483C312.818 259.059 312.52 258.562 312.33 258.022C305.905 241.426 304.963 223.209 309.644 206.04C314.324 188.871 324.38 173.652 338.339 162.614C352.297 151.575 369.423 145.297 387.209 144.7C404.994 144.102 422.503 149.217 437.171 159.294C451.838 169.371 462.892 183.881 468.714 200.698C474.536 217.514 474.819 235.753 469.522 252.742C464.225 269.732 453.626 284.578 439.279 295.105C424.932 305.633 407.59 311.288 389.794 311.244V311.244Z" fill="white"/>
<path d="M311.837 220.444C311.033 220.445 310.245 220.22 309.563 219.795C308.881 219.37 308.332 218.761 307.979 218.039L287.957 177.071C287.565 176.268 287.434 175.364 287.581 174.483C287.729 173.603 288.148 172.79 288.779 172.159L334.165 126.772C334.796 126.14 335.609 125.722 336.489 125.574C337.37 125.427 338.274 125.558 339.077 125.949L380.049 145.973C381.071 146.472 381.854 147.358 382.224 148.434C382.594 149.511 382.522 150.691 382.022 151.714C381.523 152.737 380.637 153.519 379.56 153.889C378.484 154.259 377.304 154.187 376.281 153.687L338.061 134.992L297.004 176.051L315.681 214.281C316 214.934 316.148 215.659 316.11 216.386C316.072 217.113 315.85 217.818 315.464 218.435C315.078 219.052 314.541 219.56 313.904 219.913C313.268 220.265 312.552 220.449 311.824 220.448L311.837 220.444Z" fill="white"/>
<path d="M297.784 173.501C296.647 173.5 295.557 173.049 294.754 172.245L241.255 118.745C240.451 117.941 240 116.851 240 115.715C240 114.578 240.451 113.488 241.255 112.684L274.684 79.2548C275.487 78.4514 276.577 78 277.714 78C278.85 78 279.94 78.4514 280.744 79.2548L334.251 132.747C335.055 133.55 335.506 134.64 335.506 135.777C335.506 136.913 335.055 138.003 334.251 138.807L300.822 172.236C300.424 172.637 299.951 172.955 299.429 173.172C298.908 173.389 298.349 173.501 297.784 173.501V173.501ZM250.345 115.706L297.784 163.155L325.161 135.777L277.714 88.3366L250.345 115.706Z" fill="white"/>
<path d="M442.805 330.474C442.153 330.476 441.51 330.33 440.923 330.046L399.951 310.022C399.445 309.775 398.992 309.43 398.619 309.008C398.245 308.585 397.959 308.094 397.776 307.56C397.592 307.027 397.516 306.463 397.551 305.901C397.585 305.338 397.73 304.788 397.978 304.281C398.225 303.775 398.57 303.322 398.992 302.949C399.415 302.575 399.906 302.289 400.439 302.105C400.973 301.922 401.536 301.846 402.099 301.88C402.662 301.915 403.212 302.06 403.719 302.308L441.939 320.998L482.996 279.94L464.319 241.71C464.072 241.203 463.927 240.653 463.893 240.091C463.858 239.528 463.935 238.964 464.118 238.431C464.302 237.899 464.588 237.407 464.962 236.985C465.335 236.563 465.788 236.218 466.295 235.971C466.801 235.724 467.351 235.579 467.914 235.545C468.476 235.51 469.04 235.587 469.573 235.771C470.106 235.954 470.598 236.241 471.02 236.614C471.442 236.988 471.786 237.44 472.033 237.947L492.056 278.915C492.448 279.718 492.579 280.622 492.431 281.503C492.284 282.384 491.865 283.196 491.233 283.827L445.847 329.214C445.448 329.614 444.974 329.932 444.452 330.148C443.93 330.364 443.37 330.475 442.805 330.474V330.474Z" fill="white"/>
<path d="M502.286 378C501.15 378 500.06 377.548 499.256 376.744L445.749 323.244C444.946 322.44 444.494 321.35 444.494 320.214C444.494 319.077 444.946 317.988 445.749 317.184L479.178 283.754C479.981 282.951 481.071 282.499 482.208 282.499C483.344 282.499 484.434 282.951 485.238 283.754L538.745 337.246C539.549 338.05 540 339.14 540 340.276C540 341.412 539.549 342.502 538.745 343.306L505.317 376.736C504.919 377.135 504.447 377.453 503.927 377.67C503.407 377.886 502.85 377.999 502.286 378V378ZM454.839 320.214L502.286 367.654L529.655 340.285L482.216 292.836L454.839 320.214Z" fill="white"/>
<path d="M353.837 196.121C353.273 196.122 352.715 196.011 352.195 195.796C351.674 195.58 351.201 195.264 350.803 194.866L349.088 193.151C348.285 192.347 347.835 191.256 347.836 190.119C347.837 188.982 348.29 187.892 349.095 187.089C349.899 186.286 350.99 185.835 352.127 185.837C353.264 185.838 354.354 186.291 355.157 187.095L356.871 188.81C357.471 189.41 357.879 190.174 358.044 191.006C358.209 191.838 358.124 192.7 357.798 193.484C357.473 194.267 356.922 194.936 356.216 195.407C355.51 195.877 354.681 196.127 353.833 196.126L353.837 196.121Z" fill="white"/>
<path d="M353.837 196.121C353.273 196.122 352.715 196.011 352.195 195.796C351.674 195.58 351.201 195.264 350.803 194.866L349.088 193.151C348.285 192.347 347.835 191.256 347.836 190.119C347.837 188.982 348.29 187.892 349.095 187.089C349.899 186.286 350.99 185.835 352.127 185.837C353.264 185.838 354.354 186.291 355.157 187.095L356.871 188.81C357.471 189.41 357.879 190.174 358.044 191.006C358.209 191.838 358.124 192.7 357.798 193.484C357.473 194.267 356.922 194.936 356.216 195.407C355.51 195.877 354.681 196.127 353.833 196.126L353.837 196.121Z" fill="white"/>
<path d="M427.869 270.151C426.732 270.151 425.642 269.699 424.839 268.895L423.124 267.181C422.32 266.377 421.867 265.286 421.867 264.148C421.867 263.01 422.318 261.919 423.122 261.114C423.926 260.309 425.017 259.857 426.155 259.857C427.293 259.856 428.384 260.308 429.189 261.112L430.903 262.826C431.504 263.425 431.913 264.189 432.079 265.021C432.245 265.853 432.161 266.716 431.836 267.5C431.512 268.284 430.962 268.954 430.256 269.425C429.551 269.896 428.721 270.147 427.873 270.147L427.869 270.151Z" fill="white"/>
<path d="M427.869 270.151C426.732 270.151 425.642 269.699 424.839 268.895L423.124 267.181C422.32 266.377 421.867 265.286 421.867 264.148C421.867 263.01 422.318 261.919 423.122 261.114C423.926 260.309 425.017 259.857 426.155 259.857C427.293 259.856 428.384 260.308 429.189 261.112L430.903 262.826C431.504 263.425 431.913 264.189 432.079 265.021C432.245 265.853 432.161 266.716 431.836 267.5C431.512 268.284 430.962 268.954 430.256 269.425C429.551 269.896 428.721 270.147 427.873 270.147L427.869 270.151Z" fill="white"/>
<path d="M390 181.142C388.863 181.142 387.773 180.691 386.969 179.887C386.166 179.083 385.714 177.993 385.714 176.857V174.422C385.714 173.285 386.166 172.195 386.969 171.392C387.773 170.588 388.863 170.136 390 170.136C391.137 170.136 392.227 170.588 393.03 171.392C393.834 172.195 394.286 173.285 394.286 174.422V176.839C394.288 177.404 394.179 177.963 393.964 178.485C393.75 179.007 393.435 179.481 393.037 179.881C392.638 180.281 392.165 180.598 391.644 180.814C391.123 181.031 390.564 181.142 390 181.142V181.142Z" fill="white"/>
<path d="M390 181.142C388.863 181.142 387.773 180.691 386.969 179.887C386.166 179.083 385.714 177.993 385.714 176.857V174.422C385.714 173.285 386.166 172.195 386.969 171.392C387.773 170.588 388.863 170.136 390 170.136C391.137 170.136 392.227 170.588 393.03 171.392C393.834 172.195 394.286 173.285 394.286 174.422V176.839C394.288 177.404 394.179 177.963 393.964 178.485C393.75 179.007 393.435 179.481 393.037 179.881C392.638 180.281 392.165 180.598 391.644 180.814C391.123 181.031 390.564 181.142 390 181.142V181.142Z" fill="white"/>
<path d="M390 285.854C388.863 285.854 387.773 285.403 386.969 284.599C386.166 283.795 385.714 282.705 385.714 281.568V279.151C385.714 278.014 386.166 276.924 386.969 276.121C387.773 275.317 388.863 274.865 390 274.865C391.137 274.865 392.227 275.317 393.03 276.121C393.834 276.924 394.286 278.014 394.286 279.151V281.568C394.286 282.705 393.834 283.795 393.03 284.599C392.227 285.403 391.137 285.854 390 285.854Z" fill="white"/>
<path d="M390 285.854C388.863 285.854 387.773 285.403 386.969 284.599C386.166 283.795 385.714 282.705 385.714 281.568V279.151C385.714 278.014 386.166 276.924 386.969 276.121C387.773 275.317 388.863 274.865 390 274.865C391.137 274.865 392.227 275.317 393.03 276.121C393.834 276.924 394.286 278.014 394.286 279.151V281.568C394.286 282.705 393.834 283.795 393.03 284.599C392.227 285.403 391.137 285.854 390 285.854Z" fill="white"/>
<path d="M426.159 196.121C425.31 196.123 424.48 195.872 423.774 195.402C423.067 194.931 422.517 194.261 422.192 193.477C421.867 192.693 421.782 191.83 421.948 190.997C422.114 190.165 422.523 189.401 423.124 188.801L424.839 187.087C425.237 186.689 425.71 186.373 426.23 186.158C426.75 185.943 427.307 185.832 427.87 185.832C428.433 185.833 428.991 185.944 429.511 186.159C430.031 186.375 430.503 186.691 430.901 187.089C431.299 187.487 431.614 187.96 431.83 188.48C432.045 189 432.156 189.558 432.155 190.121C432.155 190.684 432.044 191.241 431.828 191.761C431.613 192.281 431.297 192.753 430.899 193.151L429.184 194.866C428.382 195.668 427.294 196.12 426.159 196.121Z" fill="white"/>
<path d="M426.159 196.121C425.31 196.123 424.48 195.872 423.774 195.402C423.067 194.931 422.517 194.261 422.192 193.477C421.867 192.693 421.782 191.83 421.948 190.997C422.114 190.165 422.523 189.401 423.124 188.801L424.839 187.087C425.237 186.689 425.71 186.373 426.23 186.158C426.75 185.943 427.307 185.832 427.87 185.832C428.433 185.833 428.991 185.944 429.511 186.159C430.031 186.375 430.503 186.691 430.901 187.089C431.299 187.487 431.614 187.96 431.83 188.48C432.045 189 432.156 189.558 432.155 190.121C432.155 190.684 432.044 191.241 431.828 191.761C431.613 192.281 431.297 192.753 430.899 193.151L429.184 194.866C428.382 195.668 427.294 196.12 426.159 196.121Z" fill="white"/>
<path d="M352.131 270.151C351.283 270.152 350.454 269.901 349.749 269.43C349.044 268.959 348.494 268.29 348.169 267.507C347.844 266.724 347.759 265.862 347.924 265.03C348.089 264.199 348.497 263.435 349.097 262.835L350.811 261.121C351.209 260.722 351.682 260.405 352.202 260.189C352.722 259.973 353.28 259.862 353.843 259.861C354.406 259.86 354.964 259.971 355.485 260.186C356.006 260.401 356.479 260.716 356.878 261.114C357.276 261.512 357.593 261.985 357.809 262.505C358.025 263.025 358.137 263.583 358.137 264.146C358.138 264.709 358.027 265.267 357.812 265.788C357.597 266.309 357.282 266.782 356.884 267.181L355.17 268.895C354.771 269.294 354.297 269.61 353.776 269.826C353.254 270.041 352.695 270.152 352.131 270.151V270.151Z" fill="white"/>
<path d="M352.131 270.151C351.283 270.152 350.454 269.901 349.749 269.43C349.044 268.959 348.494 268.29 348.169 267.507C347.844 266.724 347.759 265.862 347.924 265.03C348.089 264.199 348.497 263.435 349.097 262.835L350.811 261.121C351.209 260.722 351.682 260.405 352.202 260.189C352.722 259.973 353.28 259.862 353.843 259.861C354.406 259.86 354.964 259.971 355.485 260.186C356.006 260.401 356.479 260.716 356.878 261.114C357.276 261.512 357.593 261.985 357.809 262.505C358.025 263.025 358.137 263.583 358.137 264.146C358.138 264.709 358.027 265.267 357.812 265.788C357.597 266.309 357.282 266.782 356.884 267.181L355.17 268.895C354.771 269.294 354.297 269.61 353.776 269.826C353.254 270.041 352.695 270.152 352.131 270.151V270.151Z" fill="white"/>
<path d="M443.572 232.281H441.155C440.018 232.281 438.928 231.83 438.124 231.026C437.32 230.222 436.869 229.132 436.869 227.995C436.869 226.859 437.32 225.768 438.124 224.965C438.928 224.161 440.018 223.709 441.155 223.709H443.572C444.708 223.709 445.798 224.161 446.602 224.965C447.406 225.768 447.857 226.859 447.857 227.995C447.857 229.132 447.406 230.222 446.602 231.026C445.798 231.83 444.708 232.281 443.572 232.281Z" fill="white"/>
<path d="M443.572 232.281H441.155C440.018 232.281 438.928 231.83 438.124 231.026C437.32 230.222 436.869 229.132 436.869 227.995C436.869 226.859 437.32 225.768 438.124 224.965C438.928 224.161 440.018 223.709 441.155 223.709H443.572C444.708 223.709 445.798 224.161 446.602 224.965C447.406 225.768 447.857 226.859 447.857 227.995C447.857 229.132 447.406 230.222 446.602 231.026C445.798 231.83 444.708 232.281 443.572 232.281Z" fill="white"/>
<path d="M338.863 232.281H336.428C335.292 232.281 334.202 231.83 333.398 231.026C332.594 230.222 332.143 229.132 332.143 227.995C332.143 226.859 332.594 225.768 333.398 224.965C334.202 224.161 335.292 223.709 336.428 223.709H338.845C339.982 223.709 341.072 224.161 341.876 224.965C342.68 225.768 343.131 226.859 343.131 227.995C343.131 229.132 342.68 230.222 341.876 231.026C341.072 231.83 339.982 232.281 338.845 232.281H338.863Z" fill="white"/>
<path d="M338.863 232.281H336.428C335.292 232.281 334.202 231.83 333.398 231.026C332.594 230.222 332.143 229.132 332.143 227.995C332.143 226.859 332.594 225.768 333.398 224.965C334.202 224.161 335.292 223.709 336.428 223.709H338.845C339.982 223.709 341.072 224.161 341.876 224.965C342.68 225.768 343.131 226.859 343.131 227.995C343.131 229.132 342.68 230.222 341.876 231.026C341.072 231.83 339.982 232.281 338.845 232.281H338.863Z" fill="white"/>
<path d="M390.93 251.139C389.793 251.139 388.703 250.687 387.899 249.884C387.096 249.08 386.644 247.99 386.644 246.853V230.7L364.971 209.026C364.562 208.631 364.235 208.158 364.011 207.635C363.786 207.112 363.668 206.55 363.663 205.981C363.658 205.411 363.766 204.847 363.982 204.32C364.197 203.794 364.516 203.315 364.918 202.913C365.321 202.51 365.799 202.192 366.326 201.977C366.852 201.761 367.417 201.653 367.986 201.658C368.555 201.663 369.117 201.781 369.64 202.005C370.163 202.23 370.636 202.557 371.031 202.966L393.96 225.895C394.764 226.699 395.215 227.789 395.216 228.925V246.853C395.216 247.99 394.764 249.08 393.96 249.884C393.157 250.687 392.067 251.139 390.93 251.139Z" fill="white"/>
<path d="M445.86 176.419C445.013 176.419 444.184 176.168 443.48 175.697C442.775 175.226 442.226 174.556 441.902 173.773C441.577 172.99 441.493 172.129 441.658 171.298C441.823 170.466 442.231 169.703 442.83 169.103L456.948 154.986C457.343 154.576 457.816 154.25 458.339 154.025C458.862 153.801 459.424 153.682 459.993 153.678C460.562 153.673 461.126 153.781 461.653 153.997C462.18 154.212 462.658 154.53 463.061 154.933C463.463 155.335 463.781 155.814 463.997 156.34C464.212 156.867 464.321 157.431 464.316 158C464.311 158.57 464.193 159.132 463.968 159.655C463.743 160.178 463.417 160.651 463.008 161.046L448.89 175.164C448.493 175.563 448.021 175.88 447.501 176.095C446.981 176.311 446.423 176.421 445.86 176.419V176.419Z" fill="white"/>
<path d="M469.081 171.422C467.944 171.422 466.854 170.97 466.051 170.166L447.858 151.943C447.077 151.135 446.645 150.052 446.655 148.928C446.664 147.804 447.115 146.729 447.91 145.935C448.704 145.14 449.779 144.689 450.903 144.68C452.027 144.67 453.109 145.102 453.918 145.883L472.123 164.089C472.723 164.688 473.131 165.452 473.296 166.283C473.461 167.114 473.376 167.976 473.052 168.759C472.728 169.542 472.179 170.211 471.474 170.682C470.769 171.153 469.941 171.405 469.093 171.405L469.081 171.422Z" fill="white"/>
</g>
<defs>
<filter id="filter0_d" x="236" y="78" width="308" height="308" filterUnits="userSpaceOnUse" color-interpolation-filters="sRGB">
<feFlood flood-opacity="0" result="BackgroundImageFix"/>
<feColorMatrix in="SourceAlpha" type="matrix" values="0 0 0 0 0 0 0 0 0 0 0 0 0 0 0 0 0 0 127 0"/>
<feOffset dy="4"/>
<feGaussianBlur stdDeviation="2"/>
<feColorMatrix type="matrix" values="0 0 0 0 0 0 0 0 0 0 0 0 0 0 0 0 0 0 0.25 0"/>
<feBlend mode="normal" in2="BackgroundImageFix" result="effect1_dropShadow"/>
<feBlend mode="normal" in="SourceGraphic" in2="effect1_dropShadow" result="shape"/>
</filter>
</defs>
</svg>
