<svg width="780" height="457" viewBox="0 0 780 457" fill="none" xmlns="http://www.w3.org/2000/svg">
<rect width="780" height="457" fill="#1B1B1B"/>
<g clip-path="url(#clip0)">
<path d="M431.194 184.143C476.842 183.446 514.1 219.374 514.984 265.019C515.114 271.72 514.444 278.243 513.064 284.5C510.727 295.094 509.338 305.875 509.338 316.724V337.695C509.338 340.908 506.733 343.512 503.521 343.512H482.55C471.701 343.512 460.92 344.901 450.326 347.238C444.069 348.618 437.547 349.288 430.845 349.158C385.2 348.275 349.272 311.018 349.969 265.371C350.648 220.815 386.639 184.824 431.194 184.143Z" fill="url(#paint0_linear)"/>
<path d="M431.194 184.143C476.842 183.446 514.1 219.374 514.984 265.019C515.114 271.72 514.444 278.243 513.064 284.5C510.727 295.094 509.338 305.875 509.338 316.724V337.695C509.338 340.908 506.733 343.512 503.521 343.512H482.55C471.701 343.512 460.92 344.901 450.326 347.238C444.069 348.618 437.547 349.288 430.845 349.158C385.2 348.275 349.272 311.018 349.969 265.371C350.648 220.815 386.639 184.824 431.194 184.143Z" fill="url(#paint1_linear)"/>
<path d="M367.098 108.838C311.486 107.989 266.096 151.759 265.019 207.367C264.861 215.531 265.677 223.478 267.359 231.1C270.206 244.007 271.898 257.141 271.898 270.358V295.906C271.898 299.82 275.071 302.993 278.985 302.993H304.533C317.75 302.993 330.884 304.686 343.791 307.532C351.413 309.213 359.36 310.03 367.524 309.872C423.131 308.795 466.901 263.406 466.053 207.795C465.225 153.515 421.379 109.667 367.098 108.838Z" fill="url(#paint2_linear)"/>
<path d="M318.216 230.199C326.816 230.199 333.787 223.227 333.787 214.627C333.787 206.027 326.816 199.055 318.216 199.055C309.616 199.055 302.644 206.027 302.644 214.627C302.644 223.227 309.616 230.199 318.216 230.199Z" fill="white"/>
<path d="M362.255 230.199C370.855 230.199 377.826 223.227 377.826 214.627C377.826 206.027 370.855 199.055 362.255 199.055C353.655 199.055 346.683 206.027 346.683 214.627C346.683 223.227 353.655 230.199 362.255 230.199Z" fill="white"/>
<path d="M406.294 230.199C414.894 230.199 421.866 223.227 421.866 214.627C421.866 206.027 414.894 199.055 406.294 199.055C397.694 199.055 390.722 206.027 390.722 214.627C390.722 223.227 397.694 230.199 406.294 230.199Z" fill="white"/>
</g>
<defs>
<linearGradient id="paint0_linear" x1="415.821" y1="250.001" x2="536.975" y2="371.155" gradientUnits="userSpaceOnUse">
<stop stop-color="#A7F3CE"/>
<stop offset="1" stop-color="#61DB99"/>
</linearGradient>
<linearGradient id="paint1_linear" x1="455.481" y1="289.658" x2="404.021" y2="238.204" gradientUnits="userSpaceOnUse">
<stop stop-color="#61DB99" stop-opacity="0"/>
<stop offset="1" stop-color="#009E74"/>
</linearGradient>
<linearGradient id="paint2_linear" x1="328.803" y1="193.106" x2="456.717" y2="321.019" gradientUnits="userSpaceOnUse">
<stop stop-color="#62E1FB"/>
<stop offset="1" stop-color="#00A2F3"/>
</linearGradient>
<clipPath id="clip0">
<rect width="250" height="250" fill="white" transform="translate(265 104)"/>
</clipPath>
</defs>
</svg>
