<svg width="780" height="457" viewBox="0 0 780 457" fill="none" xmlns="http://www.w3.org/2000/svg">
<rect width="780" height="457" fill="#1B1B1B"/>
<path d="M258.764 159H301.68C302.757 159 303.63 159.867 303.63 160.935V180.29C303.63 181.359 302.757 182.226 301.68 182.226H258.764C257.686 182.226 256.813 181.359 256.813 180.29V160.935C256.813 159.867 257.686 159 258.764 159Z" stroke="url(#paint0_linear)" stroke-width="4"/>
<path d="M245.867 183.194H311.758C318.763 183.194 324.785 188.12 326.12 194.944L345.053 291.718C346.806 300.677 339.89 309 330.691 309H227.635C218.477 309 211.571 300.748 213.254 291.817L231.486 195.043C232.78 188.173 238.824 183.194 245.867 183.194Z" stroke="url(#paint1_linear)" stroke-width="5"/>
<path d="M303.631 292.548C314.404 292.548 323.138 283.883 323.138 273.193C323.138 262.504 314.404 253.839 303.631 253.839C292.857 253.839 284.123 262.504 284.123 273.193C284.123 283.883 292.857 292.548 303.631 292.548Z" fill="#808080"/>
<path d="M262.666 230.613C273.439 230.613 282.173 221.948 282.173 211.258C282.173 200.569 273.439 191.904 262.666 191.904C251.892 191.904 243.158 200.569 243.158 211.258C243.158 221.948 251.892 230.613 262.666 230.613Z" fill="#FCADAD"/>
<path d="M261.69 269.323C269.77 269.323 276.32 262.823 276.32 254.807C276.32 246.79 269.77 240.29 261.69 240.29C253.61 240.29 247.059 246.79 247.059 254.807C247.059 262.823 253.61 269.323 261.69 269.323Z" fill="#C4C4C4"/>
<path d="M305.581 238.355C310.968 238.355 315.335 234.022 315.335 228.677C315.335 223.333 310.968 219 305.581 219C300.195 219 295.828 223.333 295.828 228.677C295.828 234.022 300.195 238.355 305.581 238.355Z" fill="#FFA6A6"/>
<path d="M241.207 298.355C246.594 298.355 250.961 294.022 250.961 288.677C250.961 283.333 246.594 279 241.207 279C235.82 279 231.454 283.333 231.454 288.677C231.454 294.022 235.82 298.355 241.207 298.355Z" fill="#BCEFAF"/>
<path d="M360.377 229.577C360.377 228.413 359.958 227.505 359.12 226.855C358.297 226.205 356.841 225.532 354.753 224.837C352.665 224.141 350.959 223.468 349.633 222.818C345.32 220.716 343.163 217.828 343.163 214.154C343.163 212.324 343.697 210.714 344.763 209.322C345.846 207.916 347.37 206.827 349.335 206.056C351.301 205.27 353.511 204.877 355.965 204.877C358.358 204.877 360.499 205.3 362.389 206.147C364.294 206.994 365.772 208.203 366.824 209.776C367.875 211.334 368.401 213.118 368.401 215.129H360.4C360.4 213.783 359.981 212.74 359.143 211.999C358.32 211.258 357.199 210.888 355.782 210.888C354.35 210.888 353.214 211.205 352.376 211.84C351.553 212.46 351.142 213.254 351.142 214.222C351.142 215.069 351.599 215.84 352.513 216.535C353.427 217.216 355.035 217.926 357.336 218.667C359.638 219.393 361.528 220.179 363.006 221.026C366.602 223.082 368.401 225.918 368.401 229.532C368.401 232.42 367.303 234.688 365.109 236.336C362.914 237.984 359.904 238.808 356.079 238.808C353.382 238.808 350.936 238.332 348.741 237.379C346.562 236.412 344.916 235.096 343.804 233.433C342.706 231.754 342.157 229.827 342.157 227.649H350.204C350.204 229.418 350.661 230.726 351.576 231.573C352.506 232.405 354.006 232.821 356.079 232.821C357.405 232.821 358.449 232.541 359.211 231.981C359.988 231.407 360.377 230.605 360.377 229.577ZM400.336 238.355H392.358V224.565H380.54V238.355H372.516V205.331H380.54V218.44H392.358V205.331H400.336V238.355ZM433.621 222.523C433.621 225.744 433.018 228.594 431.815 231.074C430.611 233.554 428.897 235.467 426.671 236.812C424.461 238.143 421.938 238.808 419.104 238.808C416.27 238.808 413.755 238.166 411.561 236.88C409.366 235.58 407.651 233.728 406.417 231.324C405.197 228.919 404.557 226.16 404.497 223.045V221.185C404.497 217.949 405.092 215.099 406.28 212.634C407.483 210.154 409.198 208.241 411.424 206.896C413.663 205.55 416.209 204.877 419.059 204.877C421.878 204.877 424.392 205.542 426.603 206.873C428.813 208.203 430.527 210.101 431.747 212.566C432.981 215.016 433.606 217.828 433.621 221.003V222.523ZM425.459 221.14C425.459 217.858 424.903 215.371 423.792 213.677C422.693 211.969 421.117 211.115 419.059 211.115C415.035 211.115 412.911 214.108 412.68 220.096L412.659 222.523C412.659 225.759 413.199 228.246 414.282 229.985C415.362 231.724 416.972 232.594 419.104 232.594C421.131 232.594 422.693 231.739 423.792 230.031C424.888 228.322 425.444 225.865 425.459 222.659V221.14ZM445.782 227.15V238.355H437.759V205.331H451.039C453.585 205.331 455.832 205.799 457.783 206.737C459.749 207.659 461.267 208.982 462.332 210.706C463.415 212.415 463.957 214.358 463.957 216.535C463.957 219.756 462.79 222.334 460.459 224.27C458.142 226.19 454.956 227.15 450.903 227.15H445.782ZM445.782 221.003H451.039C452.594 221.003 453.776 220.618 454.584 219.847C455.407 219.076 455.819 217.987 455.819 216.58C455.819 215.038 455.399 213.806 454.56 212.883C453.722 211.961 452.578 211.492 451.131 211.477H445.782V221.003ZM476.278 227.15V238.355H468.254V205.331H481.535C484.081 205.331 486.328 205.799 488.279 206.737C490.245 207.659 491.761 208.982 492.828 210.706C493.91 212.415 494.451 214.358 494.451 216.535C494.451 219.756 493.286 222.334 490.953 224.27C488.638 226.19 485.452 227.15 481.398 227.15H476.278ZM476.278 221.003H481.535C483.09 221.003 484.272 220.618 485.079 219.847C485.903 219.076 486.312 217.987 486.312 216.58C486.312 215.038 485.895 213.806 485.056 212.883C484.217 211.961 483.074 211.492 481.627 211.477H476.278V221.003ZM507.298 238.355H499.298V205.331H507.298V238.355ZM540.675 238.355H532.696L520.902 217.805V238.355H512.878V205.331H520.902L532.674 225.88V205.331H540.675V238.355ZM573 234.272C571.765 235.633 569.956 236.729 567.582 237.561C565.204 238.393 562.597 238.808 559.764 238.808C555.403 238.808 551.922 237.485 549.315 234.839C546.708 232.193 545.318 228.511 545.134 223.794L545.11 220.935C545.11 217.684 545.687 214.849 546.849 212.43C548.004 209.996 549.657 208.128 551.809 206.827C553.973 205.512 556.469 204.854 559.305 204.854C563.45 204.854 566.668 205.799 568.954 207.689C571.252 209.565 572.594 212.369 572.976 216.104H565.25C564.975 214.26 564.382 212.944 563.465 212.158C562.551 211.371 561.255 210.978 559.581 210.978C557.57 210.978 556.014 211.825 554.917 213.519C553.82 215.212 553.263 217.631 553.248 220.777V222.773C553.248 226.069 553.811 228.549 554.938 230.212C556.081 231.86 557.872 232.684 560.311 232.684C562.398 232.684 563.954 232.223 564.975 231.301V226.175H559.397V220.709H573V234.272Z" fill="white"/>
<path d="M387.001 268.975C387.001 272.196 386.399 275.046 385.196 277.526C383.991 280.006 382.277 281.918 380.052 283.264C377.842 284.595 375.32 285.26 372.485 285.26C369.65 285.26 367.136 284.617 364.941 283.332C362.747 282.032 361.032 280.18 359.798 277.775C358.579 275.371 357.938 272.611 357.878 269.497V267.636C357.878 264.401 358.472 261.551 359.661 259.086C360.865 256.606 362.579 254.693 364.804 253.347C367.044 252.002 369.59 251.329 372.439 251.329C375.259 251.329 377.773 251.994 379.983 253.325C382.193 254.655 383.908 256.553 385.127 259.018C386.361 261.467 386.986 264.28 387.001 267.455V268.975ZM378.84 267.591C378.84 264.31 378.284 261.823 377.171 260.129C376.074 258.421 374.497 257.566 372.439 257.566C368.416 257.566 366.29 260.56 366.061 266.548L366.039 268.975C366.039 272.211 366.58 274.698 367.661 276.437C368.744 278.176 370.352 279.045 372.485 279.045C374.512 279.045 376.074 278.191 377.171 276.482C378.269 274.774 378.825 272.316 378.84 269.111V267.591ZM418.936 284.807H410.96L399.163 264.257V284.807H391.139V251.782H399.163L410.936 272.332V251.782H418.936V284.807ZM432.035 278.682H446.003V284.807H424.012V251.782H432.035V278.682ZM457.937 284.807H449.935V251.782H457.937V284.807ZM491.312 284.807H483.334L471.538 264.257V284.807H463.514V251.782H471.538L483.31 272.332V251.782H491.312V284.807ZM517.03 270.812H504.411V278.682H519.316V284.807H496.386V251.782H519.362V257.929H504.411V264.892H517.03V270.812Z" fill="white"/>
<defs>
<linearGradient id="paint0_linear" x1="280.222" y1="155.129" x2="280.222" y2="186.097" gradientUnits="userSpaceOnUse">
<stop stop-color="#FF005C"/>
<stop offset="1" stop-color="#FF9900"/>
</linearGradient>
<linearGradient id="paint1_linear" x1="279.246" y1="178.355" x2="279.246" y2="313.839" gradientUnits="userSpaceOnUse">
<stop stop-color="#FF005C"/>
<stop offset="1" stop-color="#FF9900"/>
</linearGradient>
</defs>
</svg>
