<svg width="780" height="457" viewBox="0 0 780 457" fill="none" xmlns="http://www.w3.org/2000/svg">
<rect width="780" height="457" fill="#1B1B1B"/>
<g filter="url(#filter0_d)">
<path d="M491.125 169.624C508.224 171.063 515.691 191.952 503.38 203.904L362.431 340.738C351.991 350.874 334.565 346.823 329.667 333.12L274.864 179.814C269.966 166.112 280.874 151.932 295.374 153.152L491.125 169.624Z" fill="white"/>
</g>
<path d="M413.317 211.386L428.213 231.81L464.591 227.384L428.647 178.099L413.317 211.386Z" fill="#474747"/>
<path d="M371.046 207.732C381.755 199.921 383.973 184.727 376 173.795C368.027 162.862 352.882 160.332 342.173 168.142C331.463 175.952 329.245 191.146 337.218 202.079C345.191 213.011 360.336 215.542 371.046 207.732Z" fill="#474747"/>
<path d="M332.264 236.016C342.973 228.205 345.191 213.011 337.218 202.079C329.245 191.146 314.1 188.615 303.391 196.426C292.682 204.236 290.463 219.43 298.437 230.363C306.41 241.295 321.555 243.826 332.264 236.016Z" fill="#474747"/>
<path d="M345.531 260.995L390.776 227.997L405.508 248.196L360.262 281.194L345.531 260.995Z" fill="#474747"/>
<path d="M317.587 256.621L355.888 309.138L433.452 252.57L395.151 200.053L317.587 256.621ZM392.577 216.89L416.634 249.876L358.462 292.301L334.405 259.316L392.577 216.89Z" fill="#474747"/>
<defs>
<filter id="filter0_d" x="264.124" y="87.3136" width="282.299" height="272.662" filterUnits="userSpaceOnUse" color-interpolation-filters="sRGB">
<feFlood flood-opacity="0" result="BackgroundImageFix"/>
<feColorMatrix in="SourceAlpha" type="matrix" values="0 0 0 0 0 0 0 0 0 0 0 0 0 0 0 0 0 0 127 0"/>
<feOffset dy="4"/>
<feGaussianBlur stdDeviation="2"/>
<feColorMatrix type="matrix" values="0 0 0 0 0 0 0 0 0 0 0 0 0 0 0 0 0 0 0.25 0"/>
<feBlend mode="normal" in2="BackgroundImageFix" result="effect1_dropShadow"/>
<feBlend mode="normal" in="SourceGraphic" in2="effect1_dropShadow" result="shape"/>
</filter>
</defs>
</svg>
