<svg width="780" height="457" viewBox="0 0 780 457" fill="none" xmlns="http://www.w3.org/2000/svg">
<rect width="780" height="457" fill="#1B1B1B"/>
<path d="M269.383 177.809C267.681 171.505 271.427 165.033 277.816 163.333L462.072 114.33C468.431 112.639 474.967 116.383 476.667 122.681L510.618 248.445C512.321 254.749 508.575 261.22 502.186 262.921L317.929 311.924C311.57 313.614 305.035 309.87 303.335 303.573L269.383 177.809Z" fill="#EA3457"/>
<path d="M314.846 316.297C307.837 316.297 301.404 311.645 299.504 304.607L265.552 178.842C264.453 174.777 265.006 170.533 267.109 166.892C269.226 163.221 272.667 160.594 276.796 159.497L461.052 110.495C469.514 108.244 478.228 113.249 480.498 121.645L514.448 247.409C515.547 251.475 514.994 255.719 512.89 259.36C510.773 263.031 507.332 265.657 503.204 266.754L318.947 315.757C317.578 316.122 316.201 316.297 314.846 316.297ZM465.164 117.892C464.479 117.892 463.785 117.979 463.092 118.164L278.835 167.166C276.762 167.718 275.04 169.027 273.984 170.857C272.944 172.658 272.67 174.759 273.214 176.771L307.164 302.535C308.295 306.726 312.67 309.214 316.91 308.087L501.166 259.084C503.24 258.533 504.962 257.223 506.018 255.394C507.057 253.592 507.331 251.491 506.787 249.479L472.838 123.715C471.889 120.207 468.673 117.892 465.164 117.892Z" fill="#EA3457"/>
<path d="M437.865 344.076H308.652C302.079 344.076 296.75 338.782 296.75 332.146V185.376C296.75 178.786 302.047 173.446 308.652 173.446H499.127C505.7 173.446 511.03 178.739 511.03 185.376V332.145C511.03 338.735 505.732 344.075 499.127 344.075H473.291" fill="white"/>
<path d="M499.127 348.044H473.291C471.101 348.044 469.323 346.266 469.323 344.075C469.323 341.885 471.1 340.107 473.291 340.107H499.127C503.502 340.107 507.062 336.534 507.062 332.143V185.374C507.062 180.983 503.502 177.412 499.127 177.412H308.652C304.278 177.413 300.718 180.983 300.718 185.374V332.144C300.718 336.535 304.278 340.108 308.652 340.108H437.865C440.055 340.108 441.833 341.885 441.833 344.076C441.833 346.266 440.056 348.044 437.865 348.044H308.652C299.901 348.044 292.782 340.912 292.782 332.144V185.374C292.782 176.608 299.901 169.477 308.652 169.477H499.127C507.879 169.477 514.998 176.61 514.998 185.376V332.145C514.998 340.911 507.879 348.044 499.127 348.044Z" fill="#602F75"/>
<path d="M384.049 252.808H316.59V292.49H384.049V252.808Z" fill="#FFE600"/>
<path d="M384.049 296.458H316.59C314.4 296.458 312.622 294.681 312.622 292.49V252.808C312.622 250.618 314.399 248.84 316.59 248.84H384.048C386.239 248.84 388.017 250.617 388.017 252.808V292.49C388.017 294.68 386.239 296.458 384.049 296.458ZM320.558 288.522H380.081V256.777H320.558V288.522V288.522Z" fill="#602F75"/>
<path d="M495.157 252.808H395.953V260.744H495.157V252.808Z" fill="#00E7FF"/>
<path d="M495.157 284.554H395.953V292.49H495.157V284.554Z" fill="#EA3457"/>
<path d="M495.157 268.681H395.954V276.617H495.157V268.681Z" fill="#00E7FF"/>
<path d="M495.157 300.426H316.59V308.362H495.157V300.426Z" fill="#00E7FF"/>
<path d="M495.157 316.299H316.59V324.235H495.157V316.299Z" fill="#EA3457"/>
<path d="M335.408 220.06H335.997V199.742C335.997 199.219 336.029 198.725 336.094 198.26C336.16 197.796 336.302 197.391 336.523 197.05C336.743 196.706 337.068 196.433 337.503 196.229C337.935 196.024 338.526 195.923 339.278 195.923C340.11 195.923 340.767 196.026 341.248 196.229C341.729 196.435 342.094 196.707 342.338 197.05C342.582 197.391 342.736 197.796 342.802 198.26C342.868 198.725 342.902 199.219 342.902 199.742V224.565C342.902 225.283 342.879 225.977 342.84 226.646C342.8 227.316 342.669 227.917 342.449 228.446C342.229 228.976 341.87 229.398 341.372 229.718C340.874 230.038 340.176 230.196 339.279 230.196H336.047C335.279 230.196 334.639 230.046 334.124 229.744C333.61 229.442 333.182 229.073 332.841 228.639C332.497 228.208 332.224 227.756 332.02 227.282C331.815 226.81 331.656 226.409 331.543 226.081L324.149 206.056H323.562V226.375C323.562 226.899 323.528 227.391 323.465 227.855C323.399 228.319 323.257 228.724 323.037 229.067C322.816 229.409 322.489 229.685 322.057 229.887C321.624 230.089 321.031 230.193 320.281 230.193C319.432 230.193 318.763 230.089 318.273 229.887C317.783 229.685 317.416 229.409 317.172 229.067C316.926 228.725 316.772 228.319 316.706 227.855C316.643 227.391 316.609 226.899 316.609 226.375V201.552C316.609 200.85 316.629 200.161 316.67 199.485C316.71 198.808 316.845 198.203 317.073 197.674C317.302 197.144 317.664 196.719 318.163 196.4C318.661 196.08 319.365 195.922 320.28 195.922H323.511C324.327 195.922 324.991 196.08 325.508 196.4C326.021 196.717 326.442 197.064 326.767 197.44C327.126 197.881 327.412 198.386 327.626 198.958L335.408 220.06Z" fill="#602F75"/>
<path d="M369.192 216.24C369.192 216.502 369.177 216.807 369.145 217.158C369.113 217.509 368.986 217.845 368.766 218.162C368.545 218.482 368.198 218.753 367.726 218.982C367.254 219.21 366.583 219.325 365.718 219.325H355.974V221.676C355.974 222.067 356.024 222.476 356.121 222.9C356.221 223.325 356.387 223.716 356.624 224.075C356.86 224.436 357.173 224.729 357.568 224.956C357.959 225.185 358.439 225.299 359.013 225.299C359.665 225.299 360.168 225.222 360.519 225.067C360.87 224.913 361.146 224.72 361.352 224.492C361.557 224.266 361.739 224.02 361.901 223.758C362.064 223.498 362.28 223.252 362.55 223.023C362.82 222.795 363.193 222.603 363.675 222.448C364.155 222.293 364.822 222.216 365.671 222.216C366.078 222.216 366.473 222.25 366.857 222.313C367.24 222.379 367.579 222.504 367.875 222.682C368.167 222.863 368.405 223.113 368.584 223.43C368.762 223.748 368.853 224.159 368.853 224.667C368.853 225.726 368.518 226.611 367.85 227.321C367.181 228.032 366.339 228.601 365.328 229.022C364.314 229.448 363.219 229.75 362.035 229.928C360.852 230.109 359.747 230.198 358.717 230.198C357.362 230.18 356.074 230.01 354.85 229.684C353.626 229.359 352.545 228.835 351.606 228.117C350.667 227.398 349.92 226.46 349.366 225.301C348.812 224.142 348.532 222.723 348.532 221.043V215.309C348.532 213.759 348.716 212.446 349.084 211.368C349.451 210.291 349.929 209.394 350.516 208.676C351.103 207.957 351.764 207.398 352.498 207C353.232 206.601 353.975 206.301 354.726 206.105C355.476 205.91 356.19 205.788 356.867 205.738C357.545 205.69 358.129 205.665 358.619 205.665C360.268 205.665 361.675 205.812 362.841 206.106C364.008 206.399 364.984 206.784 365.768 207.256C366.552 207.728 367.173 208.278 367.629 208.897C368.086 209.516 368.429 210.159 368.659 210.818C368.888 211.481 369.034 212.151 369.102 212.826C369.165 213.504 369.199 214.135 369.199 214.725V216.241H369.192V216.24ZM355.972 215.653H362.093C362.093 214.885 362.071 214.204 362.032 213.609C361.992 213.014 361.869 212.51 361.665 212.103C361.459 211.696 361.141 211.387 360.71 211.172C360.28 210.958 359.663 210.855 358.861 210.855C358.193 210.855 357.665 210.96 357.282 211.172C356.899 211.385 356.61 211.649 356.413 211.966C356.217 212.283 356.093 212.624 356.044 212.984C355.995 213.343 355.971 213.66 355.971 213.938V215.652H355.972V215.653Z" fill="#602F75"/>
<path d="M388.384 208.554C389.17 208.554 389.866 208.802 390.479 209.302C391.09 209.798 391.632 210.693 392.106 211.982L394.701 218.885H395.092L397.834 209.288C397.965 208.833 398.131 208.391 398.336 207.964C398.541 207.542 398.791 207.163 399.084 206.827C399.376 206.492 399.727 206.224 400.136 206.02C400.543 205.815 401.033 205.714 401.604 205.714C402.191 205.714 402.689 205.821 403.098 206.032C403.505 206.244 403.84 206.524 404.102 206.865C404.362 207.209 404.55 207.599 404.663 208.04C404.778 208.482 404.836 208.931 404.836 209.389C404.836 209.83 404.774 210.258 404.652 210.673C404.528 211.087 404.394 211.508 404.249 211.934L398.814 226.377C398.44 227.339 398.1 228.077 397.797 228.593C397.495 229.107 397.197 229.48 396.904 229.716C396.612 229.954 396.317 230.091 396.023 230.135C395.731 230.174 395.419 230.194 395.092 230.194C394.733 230.194 394.394 230.172 394.076 230.135C393.759 230.093 393.439 229.954 393.122 229.716C392.804 229.48 392.48 229.105 392.155 228.593C391.828 228.078 391.487 227.339 391.125 226.377L388.58 217.565H388.189L385.546 226.377C385.185 227.339 384.856 228.077 384.554 228.593C384.252 229.107 383.957 229.48 383.673 229.716C383.387 229.954 383.098 230.091 382.804 230.135C382.51 230.174 382.199 230.194 381.872 230.194C381.512 230.194 381.173 230.172 380.856 230.135C380.538 230.093 380.221 229.954 379.901 229.716C379.584 229.48 379.262 229.105 378.935 228.593C378.61 228.078 378.267 227.339 377.907 226.377L372.421 211.934C372.277 211.544 372.139 211.121 372.018 210.673C371.895 210.224 371.834 209.78 371.834 209.337C371.834 208.865 371.896 208.407 372.018 207.966C372.142 207.528 372.336 207.141 372.606 206.804C372.875 206.471 373.229 206.204 373.671 206.01C374.112 205.814 374.657 205.717 375.31 205.717C375.766 205.717 376.179 205.82 376.546 206.022C376.915 206.229 377.244 206.494 377.538 206.83C377.832 207.165 378.084 207.544 378.298 207.967C378.508 208.393 378.689 208.836 378.836 209.29L381.921 218.887H382.312L384.563 211.984C384.972 210.697 385.514 209.8 386.19 209.304C386.871 208.802 387.601 208.554 388.384 208.554Z" fill="#602F75"/>
<path d="M414.871 212.127C414.871 212.454 414.978 212.756 415.189 213.034C415.401 213.313 415.691 213.575 416.058 213.827C416.425 214.083 416.848 214.331 417.331 214.575C417.811 214.819 418.314 215.065 418.837 215.309C419.635 215.702 420.452 216.121 421.284 216.571C422.118 217.022 422.877 217.545 423.56 218.149C424.246 218.754 424.804 219.45 425.238 220.244C425.671 221.035 425.887 221.97 425.887 223.047C425.887 224.025 425.744 224.892 425.456 225.643C425.171 226.392 424.792 227.043 424.319 227.589C423.847 228.134 423.293 228.588 422.667 228.946C422.04 229.307 421.379 229.593 420.685 229.805C419.99 230.017 419.284 230.168 418.568 230.257C417.849 230.349 417.173 230.392 416.536 230.392C415.278 230.392 414.185 230.285 413.257 230.075C412.326 229.863 411.527 229.581 410.858 229.23C410.187 228.879 409.638 228.477 409.205 228.031C408.773 227.585 408.433 227.113 408.189 226.623C407.943 226.134 407.772 225.648 407.674 225.167C407.576 224.686 407.529 224.24 407.529 223.833C407.529 222.853 407.803 222.137 408.348 221.678C408.894 221.22 409.731 220.992 410.858 220.992C411.674 220.992 412.342 221.212 412.866 221.654C413.388 222.095 413.666 222.805 413.7 223.781C413.715 224.111 413.809 224.371 413.981 224.567C414.152 224.764 414.372 224.922 414.642 225.046C414.912 225.167 415.21 225.25 415.535 225.29C415.862 225.332 416.18 225.351 416.49 225.351C417.124 225.351 417.645 225.183 418.043 224.847C418.442 224.514 418.644 224.075 418.644 223.538C418.644 223.081 418.51 222.655 418.24 222.254C417.97 221.856 417.617 221.482 417.176 221.139C416.734 220.798 416.232 220.465 415.67 220.147C415.107 219.83 414.531 219.508 413.944 219.183C413.21 218.79 412.471 218.373 411.727 217.933C410.985 217.493 410.313 217.003 409.707 216.465C409.102 215.927 408.614 215.32 408.239 214.641C407.864 213.963 407.676 213.193 407.676 212.328C407.676 211.052 407.884 209.989 408.301 209.134C408.715 208.275 409.324 207.582 410.124 207.052C410.922 206.523 411.9 206.144 413.051 205.915C414.202 205.687 415.509 205.554 416.979 205.525H417.37C418.691 205.525 419.812 205.638 420.735 205.866C421.657 206.094 422.425 206.394 423.036 206.761C423.649 207.127 424.129 207.54 424.48 207.997C424.831 208.453 425.094 208.914 425.264 209.378C425.437 209.844 425.544 210.289 425.584 210.713C425.623 211.138 425.643 211.497 425.643 211.79C425.643 212.279 425.542 212.683 425.337 213.001C425.133 213.32 424.865 213.572 424.53 213.76C424.197 213.949 423.818 214.078 423.393 214.151C422.968 214.224 422.526 214.27 422.072 214.284C421.679 214.284 421.324 214.221 421.006 214.089C420.689 213.958 420.415 213.796 420.187 213.597C419.958 213.402 419.782 213.182 419.659 212.938C419.536 212.692 419.474 212.456 419.474 212.228C419.441 211.609 419.193 211.135 418.729 210.807C418.264 210.482 417.695 210.319 417.029 210.319C416.751 210.319 416.487 210.347 416.233 210.405C415.981 210.462 415.753 210.559 415.546 210.698C415.342 210.835 415.179 211.02 415.058 211.247C414.937 211.476 414.871 211.77 414.871 212.127Z" fill="#602F75"/>
</svg>
