<svg width="780" height="457" viewBox="0 0 780 457" fill="none" xmlns="http://www.w3.org/2000/svg">
<rect width="780" height="457" fill="#1B1B1B"/>
<path d="M435.915 160.488C420.626 152.148 411.315 142.559 408.243 131.988C405.269 121.754 409.313 114.275 409.473 113.984C409.83 113.359 410.012 112.648 409.999 111.928C409.986 111.207 409.779 110.504 409.399 109.891C409.019 109.279 408.481 108.781 407.841 108.449C407.202 108.117 406.484 107.965 405.765 108.007C404.601 108.075 377.087 109.913 361.142 129.98C353.615 139.452 350.001 151.289 350.339 165.28C348.753 163.269 347.299 161.155 345.989 158.953C345.577 137.823 332.772 129.043 332.218 128.674C331.632 128.283 330.952 128.054 330.248 128.01C329.544 127.966 328.841 128.109 328.211 128.424C313.885 135.587 310.826 150.764 310.175 157.128C299.383 161.299 289.4 168.824 281.843 178.544C274.317 188.22 270 198.956 270 207.999C270 219.338 283.433 221.78 295.285 223.935C300.477 224.879 305.847 225.855 309.562 227.431C314 229.314 314 231.128 314 231.999C314 235.378 312.218 244.327 295.712 254.432C293.97 255.509 292.531 257.013 291.531 258.802C290.532 260.59 290.005 262.604 290 264.652V287.999C290 291.182 291.264 294.234 293.515 296.485C295.765 298.735 298.817 299.999 302 299.999C305.183 299.999 308.235 298.735 310.485 296.485C312.736 294.234 314 291.182 314 287.999V283.999C314.001 282.939 314.423 281.922 315.173 281.172C315.923 280.422 316.939 280.001 318 279.999H337.2C334.664 297.48 340.285 310.09 345.732 317.806C347.281 319.998 348.996 322.069 350.862 323.999H342C338.817 323.999 335.765 325.264 333.515 327.514C331.264 329.765 330 332.817 330 335.999C330 339.182 331.264 342.234 333.515 344.485C335.765 346.735 338.817 347.999 342 347.999L427.912 348.036C436.036 348.036 465.375 346.536 486.872 326.086C502.219 311.489 510 290.599 510 263.999C510 240.167 503.344 220.062 489.65 202.537C477.821 187.393 460.746 174.031 435.915 160.488ZM342 339.999C340.939 339.999 339.922 339.578 339.172 338.828C338.421 338.078 338 337.06 338 335.999C338 334.939 338.421 333.921 339.172 333.171C339.922 332.421 340.939 331.999 342 331.999H362C362.881 332 363.738 331.709 364.436 331.172C365.135 330.636 365.637 329.883 365.865 329.032C366.092 328.181 366.032 327.278 365.694 326.465C365.356 325.651 364.759 324.972 363.995 324.532C359.295 321.486 355.244 317.539 352.076 312.919C344.946 302.653 342.87 290.523 345.905 276.869C345.909 276.85 345.916 276.819 345.92 276.799C345.948 276.663 348.869 263.119 360.753 256.274C369.853 251.033 381.96 250.871 396.735 255.797C397.741 256.132 398.84 256.054 399.789 255.58C400.738 255.105 401.459 254.273 401.795 253.267C402.13 252.26 402.052 251.162 401.578 250.213C401.103 249.264 400.271 248.542 399.265 248.207C382.174 242.51 367.84 242.911 356.66 249.4C345.479 255.889 340.725 266.642 338.966 271.999H318C314.818 272.003 311.768 273.268 309.519 275.518C307.269 277.768 306.004 280.818 306 283.999V287.999C306 289.06 305.579 290.078 304.828 290.828C304.078 291.578 303.061 291.999 302 291.999C300.939 291.999 299.922 291.578 299.172 290.828C298.421 290.078 298 289.06 298 287.999V264.652C298 263.972 298.174 263.303 298.504 262.709C298.835 262.115 299.311 261.614 299.889 261.255C308.146 256.199 322 245.676 322 231.999C322 220.661 308.567 218.218 296.715 216.064C291.523 215.119 286.153 214.143 282.438 212.567C278 210.684 278 208.871 278 207.999C278 200.808 281.797 191.633 288.157 183.455C295.352 174.205 304.979 167.223 315.265 163.794C316.061 163.529 316.754 163.02 317.245 162.338C317.736 161.657 318 160.839 318 159.999C318 159.834 318.141 144.352 329.556 136.861C332.483 139.762 338 146.962 338 159.999C338 160.62 338.145 161.233 338.423 161.788C338.939 162.821 351.489 187.26 388.376 203.655C410.152 213.333 425.323 223.062 436.118 234.274C449.882 248.567 455.737 264.714 454.018 283.637C452.06 305.182 444.019 319.49 437.615 327.699C432.105 334.764 426.821 338.668 424.839 339.999L342 339.999ZM481.408 320.243C467.632 333.379 449.72 337.821 438.092 339.301C447.153 330.212 459.387 312.93 461.984 284.362C466.428 235.472 423.957 210.712 391.624 196.344C377.033 189.859 366.525 181.982 359.26 175.072C356.691 158.518 359.415 145.042 367.369 135.002C376.836 123.052 391.697 118.546 400.033 116.898C398.736 122.542 398.895 128.422 400.495 133.987C404.119 146.775 414.747 158.054 432.085 167.511C455.923 180.514 472.213 193.211 483.348 207.461C495.9 223.527 502 242.021 502 263.999C502 288.292 495.072 307.216 481.408 320.243ZM310 187.999C310 188.791 309.765 189.564 309.326 190.222C308.886 190.879 308.262 191.392 307.531 191.695C306.8 191.998 305.996 192.077 305.22 191.923C304.444 191.768 303.731 191.387 303.172 190.828C302.612 190.268 302.231 189.556 302.077 188.78C301.923 188.004 302.002 187.2 302.304 186.469C302.607 185.738 303.12 185.113 303.778 184.674C304.436 184.234 305.209 183.999 306 183.999C307.061 183.999 308.078 184.421 308.828 185.171C309.579 185.921 310 186.939 310 187.999Z" fill="url(#paint0_linear)"/>
<defs>
<linearGradient id="paint0_linear" x1="390" y1="348.036" x2="390" y2="107.999" gradientUnits="userSpaceOnUse">
<stop stop-color="#27BFE4"/>
<stop offset="0.5" stop-color="#C075E7"/>
<stop offset="1" stop-color="#F0515D"/>
</linearGradient>
</defs>
</svg>
